PathFileType	4	(X/Y/Z)	Patient4_TMGait_0pt4_02_left_31.trc.trc
DataRate	CameraRate	NumFrames	NumMarkers	Units	OrigDataRate	OrigDataStartFrame	OrigNumFrames
76.502732240437	76.502732240437	5	33	mm	76.502732240437	1	       141
Frame#	Time	Sacral			L.Shoulder			Chest			R.Shoulder			Neck			R.ASIS			L.ASIS			R.Thigh.Superior			R.Thigh.Lateral			R.Thigh.Inferior			R.Patella			L.Thigh.Superior			L.Thigh.Lateral			L.Thigh.Inferior			L.Patella			L.Shank.Superior			L.Shank.Lateral			L.Shank.Inferior			R.Shank.Superior			R.Shank.Lateral			R.Shank.Inferior			R.Heel			R.Midfoot.Superior			R.Midfoot.Lateral			R.Toe			L.Heel			L.Midfoot.Lateral			L.Midfoot.Superior			L.Toe			L.Elbow			L.Wrist			R.Elbow			R.Wrist			
		X1	Y1	Z1	X2	Y2	Z2	X3	Y3	Z3	X4	Y4	Z4	X5	Y5	Z5	X6	Y6	Z6	X7	Y7	Z7	X8	Y8	Z8	X9	Y9	Z9	X10	Y10	Z10	X11	Y11	Z11	X12	Y12	Z12	X13	Y13	Z13	X14	Y14	Z14	X15	Y15	Z15	X16	Y16	Z16	X17	Y17	Z17	X18	Y18	Z18	X19	Y19	Z19	X20	Y20	Z20	X21	Y21	Z21	X22	Y22	Z22	X23	Y23	Z23	X24	Y24	Z24	X25	Y25	Z25	X26	Y26	Z26	X27	Y27	Z27	X28	Y28	Z28	X29	Y29	Z29	X30	Y30	Z30	X31	Y31	Z31	X32	Y32	Z32	X33	Y33	Z33	

1	41.540000000000	865.895497455492	1001.292926081802	522.776938463921	1022.307955065581	1440.456072219300	341.414477883323	1133.429386529064	1374.313981945970	498.856904131804	1052.299892937961	1440.125669194561	676.629185527974	1009.949839853600	1498.620340010152	499.938571560724	1102.988292406197	946.718685361119	629.096755720965	1075.007830707134	971.905064385407	355.529566991815	1136.496784033234	740.540848671558	594.786541268427	1052.345305972342	631.865386497714	655.861583893749	1125.169112672430	578.494407803898	573.561194358429	1120.739811667438	490.524717887744	577.396629143888	1161.032668720267	785.256385911239	371.100160228352	1110.868509709950	658.978557316740	291.382309152498	1221.030953383406	599.176332570400	339.032605894324	1236.437397141041	513.076503115017	329.801700730939	1177.616714243332	441.336363154503	324.094964604749	1040.339181654056	381.701179147456	280.688832084694	1049.181065229921	249.370988227888	330.846852180487	1089.684909433715	402.119780189408	583.555431167522	1016.212146265286	300.021107916999	646.472613685515	1051.761156833261	204.881116603459	578.305817096759	912.097270827293	42.764943076024	549.332420467699	1083.733915516488	96.651236223025	582.386589715146	996.543501079416	37.121983675387	622.538627624822	1204.801408685355	43.569629836826	606.735577970357	871.703693858386	157.517845047893	375.589933634248	930.321833257681	123.454493166101	290.266091483629	1035.107691909613	144.967749910575	307.430796341282	1125.692047716487	45.998774399364	268.943081381688	993.728638659275	1087.608447083104	226.617710110795	1063.106783099325	836.842536004107	199.024821447921	1089.477561636352	1105.186728854616	818.131876683278	1326.964072922884	1020.182426209813	772.881830624118	
2	41.553071428571	865.105733015105	1002.081863227959	524.567992289589	1020.742737299201	1440.842821348844	342.729846403659	1133.329236930749	1374.366730779789	498.927946007212	1054.032133317296	1440.324213419937	677.500764451671	1010.342659222659	1498.891247795785	501.187059775884	1102.228252832429	946.469797980973	629.199449540158	1072.671945176641	972.196242049322	356.002138191287	1133.314870580182	739.948851427358	594.618227798771	1048.531915535091	631.910835789060	656.231697920614	1120.384632350667	577.990667084983	573.721782764254	1115.344722962534	490.347540714432	577.634954626645	1158.961330411917	786.259383087277	371.315029896621	1109.304729761251	659.862746921519	291.462724206217	1219.282421972716	600.344143437949	339.704267867347	1235.770767075140	515.674518189374	330.238845173694	1180.320838029428	443.272318515989	323.530015958129	1047.144877905730	376.759574624036	279.765686357283	1064.000812234533	245.138700068860	328.240679807232	1084.204943167759	402.053454776968	583.878271462836	1010.689923640876	299.998824892064	646.816626169652	1046.146016690047	204.916035075867	578.606322704868	906.459056699825	42.755259959589	549.436308518285	1078.189997868964	96.625275123707	582.451200012400	990.976106277911	37.104037853535	622.632306531250	1199.193786665045	43.585288124486	606.754591589440	893.739892524477	142.743582332992	372.646627311979	953.179703756683	113.555508808860	286.594259310441	1055.967825467074	140.966410670021	303.615882231350	1151.512562486761	48.731984946702	263.355098013147	982.461509922685	1089.105196669908	229.127179638584	1043.632155318449	836.606269285089	202.226539985187	1098.582136047596	1107.132856159663	819.031085103157	1338.015986666362	1035.537252079021	770.059137993663	
3	41.566142857143	864.308022078027	1002.844772200178	526.282032524272	1019.211380490888	1441.212677851690	344.012488231489	1133.237541761454	1374.383860516935	498.972678410733	1055.754690754144	1440.474893764431	678.337392858186	1010.745998299783	1499.127883772247	502.409120843195	1101.456675521309	946.202775959817	629.271298763310	1070.396267298754	972.449521036757	356.423942318460	1130.160702993845	739.356635264436	594.431107181106	1044.786178435332	631.940646418935	656.599979502331	1115.661238452464	577.486454676399	573.866975366445	1110.017679959621	490.160429201232	577.871806661587	1156.818224714102	787.106633367846	371.564415603800	1107.659615900821	660.657454476431	291.511296266301	1217.352020900642	601.344059617389	340.477952178866	1234.946227234268	518.163325160113	330.734448073851	1182.879940808603	445.158738306192	323.007727977132	1053.985188088518	371.807297650347	278.766531221735	1078.807280970284	241.040958230437	325.668180920999	1078.796852508090	401.977194123141	584.197566302688	1005.234066085153	299.966706930640	647.152373034476	1040.585179592842	204.937759145732	578.891949403354	900.862533406908	42.742765251772	549.536274677703	1072.678986201433	96.592387575458	582.505126190373	985.447097946720	37.084424711691	622.723322667070	1193.627635737215	43.599916542339	606.773766472820	915.916579571347	128.214379820922	369.631751156493	976.170876534576	103.907385784413	282.910335892055	1076.856043822978	137.188845990212	299.866594550724	1177.281144428429	51.765043365557	257.940798121080	971.304722574873	1090.653094257889	231.595885499754	1024.439375459958	836.480353540721	205.440139550187	1107.624076665341	1109.044836536734	819.859774489767	1348.832345247346	1050.739036639499	767.205382590272	
4	41.579214285714	863.496355124395	1003.557785545240	527.846913816860	1017.755701538545	1441.551873227224	345.217347895868	1133.164233388513	1374.334650121520	498.959529769983	1057.454146479806	1440.540000101649	679.093983795583	1011.171698776298	1499.303638999482	503.563896042961	1100.669375335254	945.905859081942	629.279297432907	1068.226393164228	972.634466552693	356.745653771517	1127.070701233839	738.764271393560	594.208885221750	1041.164653272268	631.944238996415	656.953712773577	1111.054483410486	576.982318147622	573.978819081970	1104.818367197900	489.956764779434	578.097277800212	1154.547590381900	787.678274841120	371.861981059554	1105.871921805032	661.288848397432	291.498572221230	1215.117201503189	602.047520859489	341.398621334306	1233.843490515433	520.444560156879	331.320196415847	1185.168510694284	446.954443510032	322.559126741184	1060.844726697021	366.888976636081	277.649963031029	1093.491250684393	237.236687463499	323.180123557821	1073.519678412983	401.884166866287	584.501163866871	999.897596553826	299.920958016482	647.467291331966	1035.122550456422	204.937329594200	579.147631940230	895.341310092757	42.727047527985	549.628942861147	1067.228494376085	96.549791021522	582.541762352049	979.986283951195	37.062784537064	622.809157112537	1188.135519593138	43.611885884876	606.793294341822	938.189378862167	114.265765168918	366.527743782061	999.253248452742	94.794704672543	279.258492855375	1097.658117741169	133.855213158886	296.280375190425	1202.786596571556	55.317314061709	252.924884141577	960.410741440688	1092.291997124875	233.973745802788	1005.828598299223	836.565599853707	208.665437955632	1116.522744447201	1110.891764242838	820.528217752707	1359.170394714971	1065.600268179415	764.290703921448	
5	41.592285714286	862.663050676049	1004.202556719750	529.207587250174	1016.412615809355	1441.851009846930	346.303567974321	1133.118757919714	1374.194228662565	498.860223602215	1059.121197234176	1440.492248853875	679.730017441261	1011.632640041237	1499.399749083288	504.612592857865	1099.863178680259	945.570755538684	629.197312148295	1066.186732437310	972.725475123712	356.930496231909	1124.072759246799	738.170547344409	593.942366504389	1037.702266460730	631.913973911970	657.279246178561	1106.599850332216	576.476980717020	574.043370500656	1099.784015153945	489.731441260952	578.301428181235	1152.100255712189	787.889331650755	372.214891428593	1103.895217102841	661.710348160133	291.389111174719	1212.490700229936	602.369520328951	342.476124110389	1232.374418347247	522.453795620631	332.005709535164	1187.094723340382	448.639242885390	322.204499358849	1067.719179090823	362.061902563186	276.382900790841	1107.959522359603	233.875015571862	320.829498242795	1068.405033799191	401.768288627942	584.775537753451	994.707033561206	299.860682681372	647.749830108193	1029.776685603950	204.909168944466	579.361946505007	889.905558535077	42.708563276965	549.712369141624	1061.844892639966	96.496252363114	582.557783663913	974.601140979050	37.039491509104	622.888140774095	1182.726534408611	43.619540135205	606.813703485893	960.501513485166	101.204540853460	363.332552736497	1022.391181273839	86.464712584459	275.700094033162	1118.277946123257	131.157778792358	292.963055800494	1227.861024597964	59.565255765943	248.552235093969	949.899228476427	1094.054928808739	236.222645883141	988.009096098831	836.940590699630	211.907717793747	1125.227590162420	1112.654587685252	820.954396610986	1368.852128851542	1079.987412166678	761.283962496864	
